HIERARCHY
ROOT Hips
{
  OFFSET 49.9359 86.3995 7.70534
  CHANNELS 6 Xposition Yposition Zposition Zrotation Xrotation Yrotation
  JOINT spine
  {
    OFFSET 0 6.84637 0.3937
    CHANNELS 3 Zrotation Xrotation Yrotation
    JOINT spine1
    {
      OFFSET 0 9.49621 0
      CHANNELS 3 Zrotation Xrotation Yrotation
      JOINT spine2
      {
        OFFSET 0 9.09909 0
        CHANNELS 3 Zrotation Xrotation Yrotation
        JOINT Neck
        {
          OFFSET 0 23.3612 1.11378
          CHANNELS 3 Zrotation Xrotation Yrotation
          JOINT Head
          {
            OFFSET 0 7.05802 0
            CHANNELS 3 Zrotation Xrotation Yrotation
            End Site
            {
              OFFSET 0 17.0844 -5.63419
            }
          }
        }
        JOINT RightShoulder
        {
          OFFSET -3.83136 9.82631 -0.533491
          CHANNELS 3 Zrotation Xrotation Yrotation
          JOINT RightArm
          {
            OFFSET 0 12.8881 0
            CHANNELS 3 Zrotation Xrotation Yrotation
            JOINT RightArmRoll
            {
              OFFSET 0 6.50617 0
              CHANNELS 3 Zrotation Xrotation Yrotation
              JOINT RightForeArm
              {
                OFFSET 0 18.9501 0
                CHANNELS 3 Zrotation Xrotation Yrotation
                JOINT RightForeArmRoll
                {
                  OFFSET 0 7.30092 0
                  CHANNELS 3 Zrotation Xrotation Yrotation
                  JOINT RightHand
                  {
                    OFFSET 0 14.6514 0
                    CHANNELS 3 Zrotation Xrotation Yrotation
                    End Site
                    {
                      OFFSET 0 0 0
                    }
                  }
                }
              }
            }
          }
        }
        JOINT LeftShoulder
        {
          OFFSET 3.83136 9.82631 -0.533491
          CHANNELS 3 Zrotation Xrotation Yrotation
          JOINT LeftArm
          {
            OFFSET 0 12.8881 0
            CHANNELS 3 Zrotation Xrotation Yrotation
            JOINT LeftArmRoll
            {
              OFFSET 0 6.50617 0
              CHANNELS 3 Zrotation Xrotation Yrotation
              JOINT LeftForeArm
              {
                OFFSET 0 18.9501 0
                CHANNELS 3 Zrotation Xrotation Yrotation
                JOINT LeftForeArmRoll
                {
                  OFFSET 0 7.30092 0
                  CHANNELS 3 Zrotation Xrotation Yrotation
                  JOINT LeftHand
                  {
                    OFFSET 0 14.6514 0
                    CHANNELS 3 Zrotation Xrotation Yrotation
                    End Site
                    {
                      OFFSET 0 0 0
                    }
                  }
                }
              }
            }
          }
        }
      }
    }
  }
  JOINT RightUpLeg
  {
    OFFSET -6.06837 -1.11278 -0.933477
    CHANNELS 3 Zrotation Xrotation Yrotation
    JOINT RightUpLegRoll
    {
      OFFSET 0 17.1796 0
      CHANNELS 3 Zrotation Xrotation Yrotation
      JOINT RightLeg
      {
        OFFSET 0 -21.2743 0
        CHANNELS 3 Zrotation Xrotation Yrotation
        JOINT RightLegRoll
        {
          OFFSET 0 21.3439 0
          CHANNELS 3 Zrotation Xrotation Yrotation
          JOINT RightFoot
          {
            OFFSET 0 17.7652 0
            CHANNELS 3 Zrotation Xrotation Yrotation
            JOINT RightToeBase
            {
              OFFSET 0 14.8508 0
              CHANNELS 3 Zrotation Xrotation Yrotation
              End Site
              {
                OFFSET 0.0062947 7.19213 -0.829005
              }
            }
          }
        }
      }
    }
  }
  JOINT LeftUpLeg
  {
    OFFSET 6.06837 -1.11278 -0.933477
    CHANNELS 3 Zrotation Xrotation Yrotation
    JOINT LeftUpLegRoll
    {
      OFFSET 0 17.1797 0
      CHANNELS 3 Zrotation Xrotation Yrotation
      JOINT LeftLeg
      {
        OFFSET 0 21.2742 0
        CHANNELS 3 Zrotation Xrotation Yrotation
        JOINT LeftLegRoll
        {
          OFFSET 0 21.5412 0
          CHANNELS 3 Zrotation Xrotation Yrotation
          JOINT LeftFoot
          {
            OFFSET 0 17.5679 0
            CHANNELS 3 Zrotation Xrotation Yrotation
            JOINT LeftToeBase
            {
              OFFSET 0 14.8508 0
              CHANNELS 3 Zrotation Xrotation Yrotation
              End Site
              {
                OFFSET -0.0282102 7.19214 -0.829004
              }
            }
          }
        }
      }
    }
  }
}
MOTION
Frames: 8
Frame Time: 0.00208333
49.493 86.4402 6.58868 -0.435489 -4.75975 0.0301695 1.6394 -1.39751 1.73607 3.29975 1.25404 3.293 3.26261 2.89643 3.23951 -20.1052 5.91347 -1.51651 14.8097 9.88722 -6.42163 42.6723 -6.83935 -3.46935 155.081 47.106 -93.3854 6.29925e-006 -5.63731e-007 -5.99739e-007 3.84226 60.6684 3.63904 -7.99901e-006 3.07644e-006 -3.00587 8.02885 -4.95089 0.697378 -74.5455 -6.54669 4.69799 -139.94 52.441 47.4004 2.08215e-005 -1.99838e-006 4.20317e-006 -31.5961 54.2846 18.8949 7.77069e-006 1.26415e-005 3.00605 -8.02892 -4.95111 -0.697475 -178.772 11.7081 -3.09283 -180 7.01451e-015 178.566 176.464 24.7992 -179.694 3.26638e-006 7.70834e-007 0.779651 -24.7548 71.5255 23.3119 8.13649 25.2327 -3.48774 -175.068 10.5501 -2.33483 -1.07169e-005 -4.64205e-006 -0.747365 -1.70039 -26.1488 0.554143 5.81824e-008 -4.00362e-006 -0.422308 21.1916 73.7556 -25.4099 -8.13649 25.2327 3.48774 
49.4907 86.437 6.56511 -0.448249 -4.71253 0.0439278 1.63803 -1.40632 1.73085 3.29655 1.23622 3.28209 3.25952 2.87862 3.22863 -20.0615 5.91248 -1.51911 14.7882 9.8898 -6.41358 42.7135 -6.85313 -3.48311 155.083 47.1716 -93.4388 6.29925e-006 -5.63731e-007 -5.99739e-007 4.04507 60.652 3.51212 -7.99901e-006 3.07644e-006 -3.00587 8.02885 -4.95089 0.697378 -74.5622 -6.55573 4.70273 -139.898 52.3296 47.7707 2.08215e-005 -1.99838e-006 4.20317e-006 -31.8479 54.4636 19.0753 7.77069e-006 1.26415e-005 3.00605 -8.02892 -4.95111 -0.697475 -178.759 11.7625 -3.10339 -180 7.01451e-015 178.567 176.456 24.7974 -179.691 3.26638e-006 7.70834e-007 0.77892 -24.7483 71.5175 23.301 8.13649 25.2327 -3.48774 -175.053 10.6202 -2.33547 -1.07169e-005 -4.64205e-006 -0.74754 -1.69806 -26.1671 0.55514 5.81824e-008 -4.00362e-006 -0.422168 21.1855 73.7515 -25.4053 -8.13649 25.2327 3.48774 
49.5012 86.441 6.57448 -0.461257 -4.6649 0.0576918 1.6367 -1.41521 1.72555 3.29343 1.21825 3.27104 3.25652 2.86066 3.21761 -20.0179 5.91103 -1.52194 14.7676 9.89362 -6.40591 42.7542 -6.86679 -3.49674 155.094 47.2368 -93.4949 6.29925e-006 -5.63731e-007 -5.99739e-007 4.25669 60.634 3.37917 -7.99901e-006 3.07644e-006 -3.00587 8.02885 -4.95089 0.697378 -74.5805 -6.56569 4.70795 -139.862 52.2218 48.1382 2.08215e-005 -1.99838e-006 4.20317e-006 -32.095 54.6384 19.2525 7.77069e-006 1.26415e-005 3.00605 -8.02892 -4.95111 -0.697475 -178.745 11.8172 -3.11398 -180 7.01452e-015 178.567 176.447 24.7953 -179.688 3.26638e-006 7.70834e-007 0.778165 -24.7418 71.5093 23.2898 8.13649 25.2327 -3.48774 -175.039 10.6909 -2.33626 -1.07169e-005 -4.64205e-006 -0.747722 -1.69574 -26.1855 0.556128 5.81824e-008 -4.00362e-006 -0.422034 21.1792 73.7474 -25.4007 -8.13649 25.2327 3.48774 
49.4972 86.4358 6.55895 -0.474141 -4.61764 0.0710622 1.63539 -1.42399 1.72024 3.29036 1.20049 3.26 3.25355 2.84291 3.20661 -19.9754 5.90926 -1.52492 14.7483 9.89812 -6.39867 42.7933 -6.88016 -3.51005 155.114 47.3005 -93.5517 6.29925e-006 -5.63731e-007 -5.99739e-007 4.47209 60.6141 3.24351 -7.99901e-006 3.07644e-006 -3.00587 8.02885 -4.95089 0.697378 -74.6004 -6.57651 4.7136 -139.829 52.1166 48.5026 2.08215e-005 -1.99838e-006 4.20317e-006 -32.3362 54.8102 19.4258 7.77069e-006 1.26415e-005 3.00605 -8.02892 -4.95111 -0.697475 -178.732 11.8714 -3.12437 -180 7.01452e-015 178.568 176.438 24.7932 -179.685 3.26638e-006 7.70834e-007 0.777406 -24.7352 71.5012 23.2787 8.13649 25.2327 -3.48774 -175.025 10.7608 -2.33711 -1.07169e-005 -4.64205e-006 -0.74791 -1.69356 -26.2036 0.557061 5.81824e-008 -4.00362e-006 -0.421907 21.1731 73.7434 -25.3961 -8.13649 25.2327 3.48774 
49.5075 86.4373 6.57746 -0.48653 -4.57153 0.0836399 1.63409 -1.4325 1.71501 3.28729 1.18328 3.24915 3.2506 2.82571 3.1958 -19.9348 5.9073 -1.52793 14.7307 9.90277 -6.39192 42.8299 -6.89306 -3.52284 155.139 47.362 -93.6072 6.29925e-006 -5.63731e-007 -5.99739e-007 4.68627 60.5919 3.10848 -7.99901e-006 3.07644e-006 -3.00587 8.02885 -4.95089 0.697378 -74.622 -6.58812 4.71967 -139.796 52.0132 48.8635 2.08215e-005 -1.99838e-006 4.20317e-006 -32.5707 54.98 19.5948 7.77069e-006 1.26415e-005 3.00605 -8.02892 -4.95111 -0.697475 -178.72 11.9242 -3.13433 -180 7.01452e-015 178.568 176.43 24.7909 -179.682 3.26638e-006 7.70834e-007 0.776665 -24.7287 71.4932 23.2678 8.13649 25.2327 -3.48774 -175.011 10.8287 -2.33796 -1.07169e-005 -4.64205e-006 -0.748108 -1.69164 -26.2211 0.557889 5.81824e-008 -4.00362e-006 -0.421788 21.1672 73.7395 -25.3916 -8.13649 25.2327 3.48774 
49.5057 86.4337 6.56551 -0.498047 -4.52738 0.0950259 1.63277 -1.44056 1.70992 3.2842 1.16697 3.23867 3.24762 2.8094 3.18535 -19.8967 5.90531 -1.53089 14.7151 9.90702 -6.38569 42.863 -6.90531 -3.5349 155.167 47.4201 -93.6594 6.29925e-006 -5.63731e-007 -5.99739e-007 4.8942 60.5672 2.9774 -7.99901e-006 3.07644e-006 -3.00587 8.02885 -4.95089 0.697378 -74.6454 -6.60045 4.72611 -139.761 51.9105 49.2206 2.08215e-005 -1.99838e-006 4.20317e-006 -32.7975 55.1492 19.759 7.77069e-006 1.26415e-005 3.00605 -8.02892 -4.95111 -0.697475 -178.708 11.9748 -3.14362 -180 7.01452e-015 178.568 176.422 24.7888 -179.679 3.26638e-006 7.70834e-007 0.775961 -24.7222 71.4856 23.2572 8.13649 25.2327 -3.48774 -174.998 10.8934 -2.33873 -1.07169e-005 -4.64205e-006 -0.748315 -1.6901 -26.2374 0.558564 5.81824e-008 -4.00362e-006 -0.421675 21.1617 73.7358 -25.3871 -8.13649 25.2327 3.48774 
49.4987 86.4321 6.56397 -0.508318 -4.48595 0.104821 1.63141 -1.448 1.70505 3.28106 1.15191 3.22871 3.24458 2.79435 3.17542 -19.8621 5.90341 -1.53369 14.7021 9.91031 -6.38005 42.8916 -6.91673 -3.54604 155.197 47.4741 -93.7063 6.29925e-006 -5.63731e-007 -5.99739e-007 5.09088 60.5395 2.85358 -7.99901e-006 3.07644e-006 -3.00587 8.02885 -4.95089 0.697378 -74.6706 -6.61343 4.7329 -139.721 51.8075 49.5734 2.08215e-005 -1.99838e-006 4.20317e-006 -33.0157 55.3187 19.9178 7.77069e-006 1.26415e-005 3.00605 -8.02892 -4.95111 -0.697475 -178.698 12.0223 -3.152 -180 7.01452e-015 178.569 176.415 24.787 -179.677 3.26638e-006 7.70834e-007 0.775315 -24.7158 71.4784 23.2471 8.13649 25.2327 -3.48774 -174.987 10.9535 -2.33933 -1.07169e-005 -4.64205e-006 -0.748535 -1.68907 -26.252 0.559038 5.81824e-008 -4.00362e-006 -0.42157 21.1569 73.7323 -25.3829 -8.13649 25.2327 3.48774 
49.5031 86.4311 6.56104 -0.516965 -4.44804 0.112628 1.62999 -1.45465 1.70048 3.27783 1.13844 3.21944 3.24144 2.7809 3.1662 -19.8318 5.90176 -1.53623 14.6919 9.91211 -6.37502 42.9148 -6.92715 -3.55606 155.226 47.5228 -93.7458 6.29925e-006 -5.63731e-007 -5.99739e-007 5.27131 60.5087 2.74033 -7.99901e-006 3.07644e-006 -3.00587 8.02885 -4.95089 0.697378 -74.6977 -6.627 4.74 -139.674 51.7033 49.9215 2.08215e-005 -1.99838e-006 4.20317e-006 -33.2244 55.4898 20.0707 7.77069e-006 1.26415e-005 3.00605 -8.02892 -4.95111 -0.697475 -178.69 12.0661 -3.15925 -180 7.01452e-015 178.569 176.408 24.7854 -179.675 3.26638e-006 7.70834e-007 0.774747 -24.7095 71.4718 23.2378 8.13649 25.2327 -3.48774 -174.977 11.0077 -2.33969 -1.07169e-005 -4.64205e-006 -0.748766 -1.68867 -26.2647 0.559262 5.81824e-008 -4.00362e-006 -0.421473 21.1527 73.7291 -25.3787 -8.13649 25.2327 3.48774 
